<mxfile host="app.diagrams.net" agent="Mozilla/5.0 (Macintosh; Intel Mac OS X 10_15_7) AppleWebKit/537.36 (KHTML, like Gecko) Chrome/126.0.0.0 Safari/537.36" version="24.7.5">
  <diagram name="Service Team" id="QePmAiiE0mgy76Y-YjiM">
    <mxGraphModel dx="1410" dy="756" grid="1" gridSize="10" guides="1" tooltips="1" connect="1" arrows="1" fold="1" page="1" pageScale="1" pageWidth="827" pageHeight="1169" math="0" shadow="0">
      <root>
        <mxCell id="0" />
        <mxCell id="1" parent="0" />
        <mxCell id="oy0ywMP4_1u3T_L_3BSF-1" value="&lt;font style=&quot;font-size: 24px;&quot; color=&quot;#ffffff&quot;&gt;&lt;b&gt;Mockup Checkliste: SERVICE TEAM&lt;/b&gt;&lt;/font&gt;" style="rounded=0;whiteSpace=wrap;html=1;fillColor=#7EA6E0;strokeColor=#7EA6E0;" parent="1" vertex="1">
          <mxGeometry y="20" width="827" height="70" as="geometry" />
        </mxCell>
        <mxCell id="zUiShujMp0SEYhunsbVT-1" value="" style="rounded=0;whiteSpace=wrap;html=1;" parent="1" vertex="1">
          <mxGeometry x="200" y="120" width="470" height="810" as="geometry" />
        </mxCell>
        <mxCell id="zUiShujMp0SEYhunsbVT-2" value="Checkliste: Service Team" style="rounded=0;whiteSpace=wrap;html=1;" parent="1" vertex="1">
          <mxGeometry x="220" y="130" width="410" height="30" as="geometry" />
        </mxCell>
        <mxCell id="zUiShujMp0SEYhunsbVT-3" value="&lt;p class=&quot;MsoNormal&quot;&gt;&lt;b style=&quot;mso-bidi-font-weight:normal&quot;&gt;&lt;font face=&quot;omEwTt3iOOV243laJ29D&quot;&gt;Prüfungsübersicht (aus Prüfungstermin)&lt;/font&gt;&lt;/b&gt;&lt;/p&gt;&lt;p class=&quot;MsoNormal&quot;&gt;&lt;font face=&quot;omEwTt3iOOV243laJ29D&quot;&gt;Prüfungstitel: Testprüfung&lt;br&gt;&lt;/font&gt;&lt;span style=&quot;font-family: omEwTt3iOOV243laJ29D; background-color: initial;&quot;&gt;Datum: 01.01.2025&lt;br&gt;&lt;/span&gt;&lt;span style=&quot;font-family: omEwTt3iOOV243laJ29D; background-color: initial;&quot;&gt;Uhrzeit: 8-10&lt;br&gt;&lt;/span&gt;&lt;span style=&quot;font-family: omEwTt3iOOV243laJ29D; background-color: initial;&quot;&gt;Eingetragene Lehrperson: Name&lt;br&gt;&lt;/span&gt;&lt;span style=&quot;font-family: omEwTt3iOOV243laJ29D; background-color: initial;&quot;&gt;Prüfungssystem: Prüfungsmoodle/EvaExam&lt;br&gt;&lt;/span&gt;&lt;span style=&quot;font-family: omEwTt3iOOV243laJ29D; background-color: initial;&quot;&gt;Ort: E-Prüfungsraum/@home etc.&lt;br&gt;&lt;/span&gt;&lt;span style=&quot;background-color: initial; font-family: omEwTt3iOOV243laJ29D;&quot;&gt;Teilnehmendenzahl: 78&lt;br&gt;&lt;/span&gt;&lt;span style=&quot;background-color: initial; font-family: omEwTt3iOOV243laJ29D;&quot;&gt;Zusatzausstattung : Excel, Headsets&lt;br&gt;&lt;/span&gt;&lt;span style=&quot;background-color: initial; font-family: omEwTt3iOOV243laJ29D;&quot;&gt;Support vor Ort: Name&lt;/span&gt;&lt;/p&gt;&lt;div&gt;&lt;br&gt;&lt;/div&gt;" style="rounded=0;whiteSpace=wrap;html=1;align=left;" parent="1" vertex="1">
          <mxGeometry x="220" y="180" width="410" height="180" as="geometry" />
        </mxCell>
        <mxCell id="zUiShujMp0SEYhunsbVT-30" value="" style="shape=table;startSize=0;container=1;collapsible=0;childLayout=tableLayout;align=left;" parent="1" vertex="1">
          <mxGeometry x="220" y="420" width="410" height="259" as="geometry" />
        </mxCell>
        <mxCell id="zUiShujMp0SEYhunsbVT-31" value="" style="shape=tableRow;horizontal=0;startSize=0;swimlaneHead=0;swimlaneBody=0;strokeColor=inherit;top=0;left=0;bottom=0;right=0;collapsible=0;dropTarget=0;fillColor=none;points=[[0,0.5],[1,0.5]];portConstraint=eastwest;align=left;" parent="zUiShujMp0SEYhunsbVT-30" vertex="1">
          <mxGeometry width="410" height="43" as="geometry" />
        </mxCell>
        <mxCell id="zUiShujMp0SEYhunsbVT-32" value="" style="shape=partialRectangle;html=1;whiteSpace=wrap;connectable=0;strokeColor=inherit;overflow=hidden;fillColor=none;top=0;left=0;bottom=0;right=0;pointerEvents=1;" parent="zUiShujMp0SEYhunsbVT-31" vertex="1">
          <mxGeometry width="50" height="43" as="geometry">
            <mxRectangle width="50" height="43" as="alternateBounds" />
          </mxGeometry>
        </mxCell>
        <mxCell id="zUiShujMp0SEYhunsbVT-33" value="&lt;span style=&quot;font-size:12.0pt;font-family:Akkurat-Light;&lt;br/&gt;mso-fareast-font-family:&amp;quot;Times New Roman&amp;quot;;mso-fareast-theme-font:minor-fareast;&lt;br/&gt;mso-bidi-font-family:&amp;quot;Times New Roman&amp;quot;;mso-ansi-language:DE;mso-fareast-language:&lt;br/&gt;DE;mso-bidi-language:AR-SA&quot;&gt;Zusatzsoftware installiert&lt;/span&gt;" style="shape=partialRectangle;html=1;whiteSpace=wrap;connectable=0;strokeColor=inherit;overflow=hidden;fillColor=none;top=0;left=0;bottom=0;right=0;pointerEvents=1;align=left;" parent="zUiShujMp0SEYhunsbVT-31" vertex="1">
          <mxGeometry x="50" width="230" height="43" as="geometry">
            <mxRectangle width="230" height="43" as="alternateBounds" />
          </mxGeometry>
        </mxCell>
        <mxCell id="zUiShujMp0SEYhunsbVT-64" value="Notiz" style="shape=partialRectangle;html=1;whiteSpace=wrap;connectable=0;strokeColor=inherit;overflow=hidden;fillColor=none;top=0;left=0;bottom=0;right=0;pointerEvents=1;" parent="zUiShujMp0SEYhunsbVT-31" vertex="1">
          <mxGeometry x="280" width="130" height="43" as="geometry">
            <mxRectangle width="130" height="43" as="alternateBounds" />
          </mxGeometry>
        </mxCell>
        <mxCell id="zUiShujMp0SEYhunsbVT-34" value="" style="shape=tableRow;horizontal=0;startSize=0;swimlaneHead=0;swimlaneBody=0;strokeColor=inherit;top=0;left=0;bottom=0;right=0;collapsible=0;dropTarget=0;fillColor=none;points=[[0,0.5],[1,0.5]];portConstraint=eastwest;" parent="zUiShujMp0SEYhunsbVT-30" vertex="1">
          <mxGeometry y="43" width="410" height="44" as="geometry" />
        </mxCell>
        <mxCell id="zUiShujMp0SEYhunsbVT-35" value="" style="shape=partialRectangle;html=1;whiteSpace=wrap;connectable=0;strokeColor=inherit;overflow=hidden;fillColor=none;top=0;left=0;bottom=0;right=0;pointerEvents=1;" parent="zUiShujMp0SEYhunsbVT-34" vertex="1">
          <mxGeometry width="50" height="44" as="geometry">
            <mxRectangle width="50" height="44" as="alternateBounds" />
          </mxGeometry>
        </mxCell>
        <mxCell id="zUiShujMp0SEYhunsbVT-36" value="&lt;span style=&quot;font-size:12.0pt;font-family:Akkurat-Light;&lt;br/&gt;mso-fareast-font-family:&amp;quot;Times New Roman&amp;quot;;mso-fareast-theme-font:minor-fareast;&lt;br/&gt;mso-bidi-font-family:&amp;quot;Times New Roman&amp;quot;;mso-ansi-language:DE;mso-fareast-language:&lt;br/&gt;DE;mso-bidi-language:AR-SA&quot;&gt;Prüfungs-Kurs vorhanden&lt;/span&gt;" style="shape=partialRectangle;html=1;whiteSpace=wrap;connectable=0;strokeColor=inherit;overflow=hidden;fillColor=none;top=0;left=0;bottom=0;right=0;pointerEvents=1;align=left;" parent="zUiShujMp0SEYhunsbVT-34" vertex="1">
          <mxGeometry x="50" width="230" height="44" as="geometry">
            <mxRectangle width="230" height="44" as="alternateBounds" />
          </mxGeometry>
        </mxCell>
        <mxCell id="zUiShujMp0SEYhunsbVT-65" value="Kurslink etc." style="shape=partialRectangle;html=1;whiteSpace=wrap;connectable=0;strokeColor=inherit;overflow=hidden;fillColor=none;top=0;left=0;bottom=0;right=0;pointerEvents=1;" parent="zUiShujMp0SEYhunsbVT-34" vertex="1">
          <mxGeometry x="280" width="130" height="44" as="geometry">
            <mxRectangle width="130" height="44" as="alternateBounds" />
          </mxGeometry>
        </mxCell>
        <mxCell id="zUiShujMp0SEYhunsbVT-37" value="" style="shape=tableRow;horizontal=0;startSize=0;swimlaneHead=0;swimlaneBody=0;strokeColor=inherit;top=0;left=0;bottom=0;right=0;collapsible=0;dropTarget=0;fillColor=none;points=[[0,0.5],[1,0.5]];portConstraint=eastwest;" parent="zUiShujMp0SEYhunsbVT-30" vertex="1">
          <mxGeometry y="87" width="410" height="43" as="geometry" />
        </mxCell>
        <mxCell id="zUiShujMp0SEYhunsbVT-38" value="" style="shape=partialRectangle;html=1;whiteSpace=wrap;connectable=0;strokeColor=inherit;overflow=hidden;fillColor=none;top=0;left=0;bottom=0;right=0;pointerEvents=1;" parent="zUiShujMp0SEYhunsbVT-37" vertex="1">
          <mxGeometry width="50" height="43" as="geometry">
            <mxRectangle width="50" height="43" as="alternateBounds" />
          </mxGeometry>
        </mxCell>
        <mxCell id="zUiShujMp0SEYhunsbVT-39" value="&#xa;&lt;span style=&quot;font-size:12.0pt;font-family:Akkurat-Light;&#xa;mso-fareast-font-family:&amp;quot;Times New Roman&amp;quot;;mso-fareast-theme-font:minor-fareast;&#xa;mso-bidi-font-family:&amp;quot;Times New Roman&amp;quot;;mso-ansi-language:DE;mso-fareast-language:&#xa;DE;mso-bidi-language:AR-SA&quot;&gt;Audioqualität gecheckt &lt;/span&gt;&#xa;&#xa;&#xa;&#xa;" style="shape=partialRectangle;html=1;whiteSpace=wrap;connectable=0;strokeColor=inherit;overflow=hidden;fillColor=none;top=0;left=0;bottom=0;right=0;pointerEvents=1;align=left;" parent="zUiShujMp0SEYhunsbVT-37" vertex="1">
          <mxGeometry x="50" width="230" height="43" as="geometry">
            <mxRectangle width="230" height="43" as="alternateBounds" />
          </mxGeometry>
        </mxCell>
        <mxCell id="zUiShujMp0SEYhunsbVT-66" style="shape=partialRectangle;html=1;whiteSpace=wrap;connectable=0;strokeColor=inherit;overflow=hidden;fillColor=none;top=0;left=0;bottom=0;right=0;pointerEvents=1;" parent="zUiShujMp0SEYhunsbVT-37" vertex="1">
          <mxGeometry x="280" width="130" height="43" as="geometry">
            <mxRectangle width="130" height="43" as="alternateBounds" />
          </mxGeometry>
        </mxCell>
        <mxCell id="zUiShujMp0SEYhunsbVT-52" style="shape=tableRow;horizontal=0;startSize=0;swimlaneHead=0;swimlaneBody=0;strokeColor=inherit;top=0;left=0;bottom=0;right=0;collapsible=0;dropTarget=0;fillColor=none;points=[[0,0.5],[1,0.5]];portConstraint=eastwest;" parent="zUiShujMp0SEYhunsbVT-30" vertex="1">
          <mxGeometry y="130" width="410" height="43" as="geometry" />
        </mxCell>
        <mxCell id="zUiShujMp0SEYhunsbVT-53" style="shape=partialRectangle;html=1;whiteSpace=wrap;connectable=0;strokeColor=inherit;overflow=hidden;fillColor=none;top=0;left=0;bottom=0;right=0;pointerEvents=1;" parent="zUiShujMp0SEYhunsbVT-52" vertex="1">
          <mxGeometry width="50" height="43" as="geometry">
            <mxRectangle width="50" height="43" as="alternateBounds" />
          </mxGeometry>
        </mxCell>
        <mxCell id="zUiShujMp0SEYhunsbVT-54" value="&lt;span style=&quot;font-size:12.0pt;font-family:Akkurat-Light;&lt;br/&gt;mso-fareast-font-family:&amp;quot;Times New Roman&amp;quot;;mso-fareast-theme-font:minor-fareast;&lt;br/&gt;mso-bidi-font-family:&amp;quot;Times New Roman&amp;quot;;mso-ansi-language:DE;mso-fareast-language:&lt;br/&gt;DE;mso-bidi-language:AR-SA&quot;&gt;Reminder Mail 1 Woche vorher (automatisch?) an Lehrenden&lt;/span&gt;" style="shape=partialRectangle;html=1;whiteSpace=wrap;connectable=0;strokeColor=inherit;overflow=hidden;fillColor=none;top=0;left=0;bottom=0;right=0;pointerEvents=1;align=left;" parent="zUiShujMp0SEYhunsbVT-52" vertex="1">
          <mxGeometry x="50" width="230" height="43" as="geometry">
            <mxRectangle width="230" height="43" as="alternateBounds" />
          </mxGeometry>
        </mxCell>
        <mxCell id="zUiShujMp0SEYhunsbVT-67" style="shape=partialRectangle;html=1;whiteSpace=wrap;connectable=0;strokeColor=inherit;overflow=hidden;fillColor=none;top=0;left=0;bottom=0;right=0;pointerEvents=1;" parent="zUiShujMp0SEYhunsbVT-52" vertex="1">
          <mxGeometry x="280" width="130" height="43" as="geometry">
            <mxRectangle width="130" height="43" as="alternateBounds" />
          </mxGeometry>
        </mxCell>
        <mxCell id="zUiShujMp0SEYhunsbVT-49" style="shape=tableRow;horizontal=0;startSize=0;swimlaneHead=0;swimlaneBody=0;strokeColor=inherit;top=0;left=0;bottom=0;right=0;collapsible=0;dropTarget=0;fillColor=none;points=[[0,0.5],[1,0.5]];portConstraint=eastwest;" parent="zUiShujMp0SEYhunsbVT-30" vertex="1">
          <mxGeometry y="173" width="410" height="43" as="geometry" />
        </mxCell>
        <mxCell id="zUiShujMp0SEYhunsbVT-50" style="shape=partialRectangle;html=1;whiteSpace=wrap;connectable=0;strokeColor=inherit;overflow=hidden;fillColor=none;top=0;left=0;bottom=0;right=0;pointerEvents=1;" parent="zUiShujMp0SEYhunsbVT-49" vertex="1">
          <mxGeometry width="50" height="43" as="geometry">
            <mxRectangle width="50" height="43" as="alternateBounds" />
          </mxGeometry>
        </mxCell>
        <mxCell id="zUiShujMp0SEYhunsbVT-51" value="" style="shape=partialRectangle;html=1;whiteSpace=wrap;connectable=0;strokeColor=inherit;overflow=hidden;fillColor=none;top=0;left=0;bottom=0;right=0;pointerEvents=1;align=left;horizontal=1;" parent="zUiShujMp0SEYhunsbVT-49" vertex="1">
          <mxGeometry x="50" width="230" height="43" as="geometry">
            <mxRectangle width="230" height="43" as="alternateBounds" />
          </mxGeometry>
        </mxCell>
        <mxCell id="zUiShujMp0SEYhunsbVT-68" value="" style="shape=partialRectangle;html=1;whiteSpace=wrap;connectable=0;strokeColor=inherit;overflow=hidden;fillColor=none;top=0;left=0;bottom=0;right=0;pointerEvents=1;" parent="zUiShujMp0SEYhunsbVT-49" vertex="1">
          <mxGeometry x="280" width="130" height="43" as="geometry">
            <mxRectangle width="130" height="43" as="alternateBounds" />
          </mxGeometry>
        </mxCell>
        <mxCell id="zUiShujMp0SEYhunsbVT-46" style="shape=tableRow;horizontal=0;startSize=0;swimlaneHead=0;swimlaneBody=0;strokeColor=inherit;top=0;left=0;bottom=0;right=0;collapsible=0;dropTarget=0;fillColor=none;points=[[0,0.5],[1,0.5]];portConstraint=eastwest;" parent="zUiShujMp0SEYhunsbVT-30" vertex="1">
          <mxGeometry y="216" width="410" height="43" as="geometry" />
        </mxCell>
        <mxCell id="zUiShujMp0SEYhunsbVT-47" style="shape=partialRectangle;html=1;whiteSpace=wrap;connectable=0;strokeColor=inherit;overflow=hidden;fillColor=none;top=0;left=0;bottom=0;right=0;pointerEvents=1;" parent="zUiShujMp0SEYhunsbVT-46" vertex="1">
          <mxGeometry width="50" height="43" as="geometry">
            <mxRectangle width="50" height="43" as="alternateBounds" />
          </mxGeometry>
        </mxCell>
        <mxCell id="zUiShujMp0SEYhunsbVT-48" value="" style="shape=partialRectangle;html=1;whiteSpace=wrap;connectable=0;strokeColor=inherit;overflow=hidden;fillColor=none;top=0;left=0;bottom=0;right=0;pointerEvents=1;" parent="zUiShujMp0SEYhunsbVT-46" vertex="1">
          <mxGeometry x="50" width="230" height="43" as="geometry">
            <mxRectangle width="230" height="43" as="alternateBounds" />
          </mxGeometry>
        </mxCell>
        <mxCell id="zUiShujMp0SEYhunsbVT-69" style="shape=partialRectangle;html=1;whiteSpace=wrap;connectable=0;strokeColor=inherit;overflow=hidden;fillColor=none;top=0;left=0;bottom=0;right=0;pointerEvents=1;" parent="zUiShujMp0SEYhunsbVT-46" vertex="1">
          <mxGeometry x="280" width="130" height="43" as="geometry">
            <mxRectangle width="130" height="43" as="alternateBounds" />
          </mxGeometry>
        </mxCell>
        <mxCell id="zUiShujMp0SEYhunsbVT-40" value="" style="rounded=0;whiteSpace=wrap;html=1;" parent="1" vertex="1">
          <mxGeometry x="220" y="360" width="410" height="20" as="geometry" />
        </mxCell>
        <mxCell id="zUiShujMp0SEYhunsbVT-41" value="50%" style="rounded=0;whiteSpace=wrap;html=1;strokeColor=default;fillColor=#D5E8D4;" parent="1" vertex="1">
          <mxGeometry x="220" y="360" width="211" height="20" as="geometry" />
        </mxCell>
        <mxCell id="zUiShujMp0SEYhunsbVT-42" value="" style="rounded=0;whiteSpace=wrap;html=1;" parent="1" vertex="1">
          <mxGeometry x="230" y="430" width="20" height="20" as="geometry" />
        </mxCell>
        <mxCell id="zUiShujMp0SEYhunsbVT-55" value="" style="verticalLabelPosition=bottom;verticalAlign=top;html=1;shape=mxgraph.basic.tick;fillColor=#d5e8d4;strokeColor=#82b366;" parent="1" vertex="1">
          <mxGeometry x="230" y="430" width="20" height="20" as="geometry" />
        </mxCell>
        <mxCell id="zUiShujMp0SEYhunsbVT-56" value="" style="rounded=0;whiteSpace=wrap;html=1;" parent="1" vertex="1">
          <mxGeometry x="230" y="470" width="20" height="20" as="geometry" />
        </mxCell>
        <mxCell id="zUiShujMp0SEYhunsbVT-59" value="" style="rounded=0;whiteSpace=wrap;html=1;" parent="1" vertex="1">
          <mxGeometry x="230" y="520" width="20" height="20" as="geometry" />
        </mxCell>
        <mxCell id="zUiShujMp0SEYhunsbVT-61" value="" style="rounded=0;whiteSpace=wrap;html=1;" parent="1" vertex="1">
          <mxGeometry x="230" y="565" width="20" height="20" as="geometry" />
        </mxCell>
        <mxCell id="zUiShujMp0SEYhunsbVT-62" value="" style="rounded=0;whiteSpace=wrap;html=1;" parent="1" vertex="1">
          <mxGeometry x="230" y="610" width="20" height="20" as="geometry" />
        </mxCell>
        <mxCell id="zUiShujMp0SEYhunsbVT-63" value="" style="rounded=0;whiteSpace=wrap;html=1;" parent="1" vertex="1">
          <mxGeometry x="230" y="650" width="20" height="20" as="geometry" />
        </mxCell>
        <mxCell id="zUiShujMp0SEYhunsbVT-70" value="" style="verticalLabelPosition=bottom;verticalAlign=top;html=1;shape=mxgraph.basic.tick;fillColor=#d5e8d4;strokeColor=#82b366;" parent="1" vertex="1">
          <mxGeometry x="230" y="470" width="20" height="20" as="geometry" />
        </mxCell>
        <mxCell id="zUiShujMp0SEYhunsbVT-71" value="" style="verticalLabelPosition=bottom;verticalAlign=top;html=1;shape=mxgraph.basic.tick;fillColor=#d5e8d4;strokeColor=#82b366;" parent="1" vertex="1">
          <mxGeometry x="230" y="520" width="20" height="20" as="geometry" />
        </mxCell>
        <mxCell id="zUiShujMp0SEYhunsbVT-73" value="Export nach?" style="rounded=1;whiteSpace=wrap;html=1;fillColor=#dae8fc;strokeColor=#6c8ebf;" parent="1" vertex="1">
          <mxGeometry x="331" y="870" width="90" height="30" as="geometry" />
        </mxCell>
        <mxCell id="zUiShujMp0SEYhunsbVT-74" value="Import Checkliste aus?" style="rounded=1;whiteSpace=wrap;html=1;fillColor=#ffe6cc;strokeColor=#d79b00;" parent="1" vertex="1">
          <mxGeometry x="220" y="870" width="90" height="30" as="geometry" />
        </mxCell>
        <mxCell id="zUiShujMp0SEYhunsbVT-75" value="&lt;b&gt;TO-Do´s Service Team bis zum Prüfungstermin&lt;/b&gt;" style="rounded=0;whiteSpace=wrap;html=1;align=left;" parent="1" vertex="1">
          <mxGeometry x="220" y="400" width="410" height="20" as="geometry" />
        </mxCell>
        <mxCell id="zubD1nYl8G_YblTb4Z4p-1" value="" style="shape=table;startSize=0;container=1;collapsible=0;childLayout=tableLayout;align=left;" parent="1" vertex="1">
          <mxGeometry x="220" y="710" width="410" height="130" as="geometry" />
        </mxCell>
        <mxCell id="zubD1nYl8G_YblTb4Z4p-2" value="" style="shape=tableRow;horizontal=0;startSize=0;swimlaneHead=0;swimlaneBody=0;strokeColor=inherit;top=0;left=0;bottom=0;right=0;collapsible=0;dropTarget=0;fillColor=none;points=[[0,0.5],[1,0.5]];portConstraint=eastwest;align=left;" parent="zubD1nYl8G_YblTb4Z4p-1" vertex="1">
          <mxGeometry width="410" height="43" as="geometry" />
        </mxCell>
        <mxCell id="zubD1nYl8G_YblTb4Z4p-3" value="" style="shape=partialRectangle;html=1;whiteSpace=wrap;connectable=0;strokeColor=inherit;overflow=hidden;fillColor=none;top=0;left=0;bottom=0;right=0;pointerEvents=1;" parent="zubD1nYl8G_YblTb4Z4p-2" vertex="1">
          <mxGeometry width="50" height="43" as="geometry">
            <mxRectangle width="50" height="43" as="alternateBounds" />
          </mxGeometry>
        </mxCell>
        <mxCell id="zubD1nYl8G_YblTb4Z4p-4" value="&lt;span style=&quot;font-size:12.0pt;font-family:Akkurat-Light;&lt;br/&gt;mso-fareast-font-family:&amp;quot;Times New Roman&amp;quot;;mso-fareast-theme-font:minor-fareast;&lt;br/&gt;mso-bidi-font-family:&amp;quot;Times New Roman&amp;quot;;mso-ansi-language:DE;mso-fareast-language:&lt;br/&gt;DE;mso-bidi-language:AR-SA&quot;&gt;Statistische Auswertung&lt;/span&gt;" style="shape=partialRectangle;html=1;whiteSpace=wrap;connectable=0;strokeColor=inherit;overflow=hidden;fillColor=none;top=0;left=0;bottom=0;right=0;pointerEvents=1;align=left;" parent="zubD1nYl8G_YblTb4Z4p-2" vertex="1">
          <mxGeometry x="50" width="230" height="43" as="geometry">
            <mxRectangle width="230" height="43" as="alternateBounds" />
          </mxGeometry>
        </mxCell>
        <mxCell id="zubD1nYl8G_YblTb4Z4p-5" value="Notiz" style="shape=partialRectangle;html=1;whiteSpace=wrap;connectable=0;strokeColor=inherit;overflow=hidden;fillColor=none;top=0;left=0;bottom=0;right=0;pointerEvents=1;" parent="zubD1nYl8G_YblTb4Z4p-2" vertex="1">
          <mxGeometry x="280" width="130" height="43" as="geometry">
            <mxRectangle width="130" height="43" as="alternateBounds" />
          </mxGeometry>
        </mxCell>
        <mxCell id="zubD1nYl8G_YblTb4Z4p-6" value="" style="shape=tableRow;horizontal=0;startSize=0;swimlaneHead=0;swimlaneBody=0;strokeColor=inherit;top=0;left=0;bottom=0;right=0;collapsible=0;dropTarget=0;fillColor=none;points=[[0,0.5],[1,0.5]];portConstraint=eastwest;" parent="zubD1nYl8G_YblTb4Z4p-1" vertex="1">
          <mxGeometry y="43" width="410" height="44" as="geometry" />
        </mxCell>
        <mxCell id="zubD1nYl8G_YblTb4Z4p-7" value="" style="shape=partialRectangle;html=1;whiteSpace=wrap;connectable=0;strokeColor=inherit;overflow=hidden;fillColor=none;top=0;left=0;bottom=0;right=0;pointerEvents=1;" parent="zubD1nYl8G_YblTb4Z4p-6" vertex="1">
          <mxGeometry width="50" height="44" as="geometry">
            <mxRectangle width="50" height="44" as="alternateBounds" />
          </mxGeometry>
        </mxCell>
        <mxCell id="zubD1nYl8G_YblTb4Z4p-8" value="" style="shape=partialRectangle;html=1;whiteSpace=wrap;connectable=0;strokeColor=inherit;overflow=hidden;fillColor=none;top=0;left=0;bottom=0;right=0;pointerEvents=1;align=left;" parent="zubD1nYl8G_YblTb4Z4p-6" vertex="1">
          <mxGeometry x="50" width="230" height="44" as="geometry">
            <mxRectangle width="230" height="44" as="alternateBounds" />
          </mxGeometry>
        </mxCell>
        <mxCell id="zubD1nYl8G_YblTb4Z4p-9" value="" style="shape=partialRectangle;html=1;whiteSpace=wrap;connectable=0;strokeColor=inherit;overflow=hidden;fillColor=none;top=0;left=0;bottom=0;right=0;pointerEvents=1;" parent="zubD1nYl8G_YblTb4Z4p-6" vertex="1">
          <mxGeometry x="280" width="130" height="44" as="geometry">
            <mxRectangle width="130" height="44" as="alternateBounds" />
          </mxGeometry>
        </mxCell>
        <mxCell id="zubD1nYl8G_YblTb4Z4p-10" value="" style="shape=tableRow;horizontal=0;startSize=0;swimlaneHead=0;swimlaneBody=0;strokeColor=inherit;top=0;left=0;bottom=0;right=0;collapsible=0;dropTarget=0;fillColor=none;points=[[0,0.5],[1,0.5]];portConstraint=eastwest;" parent="zubD1nYl8G_YblTb4Z4p-1" vertex="1">
          <mxGeometry y="87" width="410" height="43" as="geometry" />
        </mxCell>
        <mxCell id="zubD1nYl8G_YblTb4Z4p-11" value="" style="shape=partialRectangle;html=1;whiteSpace=wrap;connectable=0;strokeColor=inherit;overflow=hidden;fillColor=none;top=0;left=0;bottom=0;right=0;pointerEvents=1;" parent="zubD1nYl8G_YblTb4Z4p-10" vertex="1">
          <mxGeometry width="50" height="43" as="geometry">
            <mxRectangle width="50" height="43" as="alternateBounds" />
          </mxGeometry>
        </mxCell>
        <mxCell id="zubD1nYl8G_YblTb4Z4p-12" value="" style="shape=partialRectangle;html=1;whiteSpace=wrap;connectable=0;strokeColor=inherit;overflow=hidden;fillColor=none;top=0;left=0;bottom=0;right=0;pointerEvents=1;align=left;" parent="zubD1nYl8G_YblTb4Z4p-10" vertex="1">
          <mxGeometry x="50" width="230" height="43" as="geometry">
            <mxRectangle width="230" height="43" as="alternateBounds" />
          </mxGeometry>
        </mxCell>
        <mxCell id="zubD1nYl8G_YblTb4Z4p-13" style="shape=partialRectangle;html=1;whiteSpace=wrap;connectable=0;strokeColor=inherit;overflow=hidden;fillColor=none;top=0;left=0;bottom=0;right=0;pointerEvents=1;" parent="zubD1nYl8G_YblTb4Z4p-10" vertex="1">
          <mxGeometry x="280" width="130" height="43" as="geometry">
            <mxRectangle width="130" height="43" as="alternateBounds" />
          </mxGeometry>
        </mxCell>
        <mxCell id="zubD1nYl8G_YblTb4Z4p-26" value="&lt;b&gt;Kategorie 2&lt;/b&gt;" style="rounded=0;whiteSpace=wrap;html=1;align=left;" parent="1" vertex="1">
          <mxGeometry x="220" y="690" width="410" height="20" as="geometry" />
        </mxCell>
      </root>
    </mxGraphModel>
  </diagram>
</mxfile>
